<svg xmlns="http://www.w3.org/2000/svg" xmlns:xlink="http://www.w3.org/1999/xlink" width="500" zoomAndPan="magnify" viewBox="0 0 375 374.999991" height="500" preserveAspectRatio="xMidYMid meet" version="1.0"><defs><g/><clipPath id="e3bc958dbd"><path d="M 62.507812 156.824219 L 148.59375 156.824219 L 148.59375 325.75 L 62.507812 325.75 Z M 62.507812 156.824219 " clip-rule="nonzero"/></clipPath><clipPath id="eceb2d558b"><path d="M 148.191406 0 L 232.234375 0 L 232.234375 168.929688 L 148.191406 168.929688 Z M 148.191406 0 " clip-rule="nonzero"/></clipPath></defs><path stroke-linecap="butt" transform="matrix(0, -0.820739, 0.820739, 0, 145.719794, 325.755828)" fill="none" stroke-linejoin="miter" d="M 0.00234174 2.502189 L 389.6095 2.502189 " stroke="#ffffff" stroke-width="5" stroke-opacity="1" stroke-miterlimit="4"/><g clip-path="url(#e3bc958dbd)"><path fill="#ffffff" d="M 194.832031 267.625 C 195.574219 267.625 196.171875 267.027344 196.171875 266.285156 C 196.171875 265.546875 195.574219 264.945312 194.832031 264.945312 C 194.089844 264.945312 193.492188 265.546875 193.492188 266.285156 C 193.492188 267.027344 194.089844 267.625 194.832031 267.625 Z M 203.195312 260.820312 C 203.9375 260.820312 204.535156 260.21875 204.535156 259.480469 C 204.535156 258.738281 203.9375 258.140625 203.195312 258.140625 C 202.453125 258.140625 201.855469 258.738281 201.855469 259.480469 C 201.855469 260.21875 202.453125 260.820312 203.195312 260.820312 Z M 202.523438 239.800781 C 201.78125 239.800781 201.179688 240.402344 201.179688 241.144531 C 201.179688 241.882812 201.78125 242.484375 202.523438 242.484375 C 203.261719 242.484375 203.863281 241.882812 203.863281 241.144531 C 203.863281 240.402344 203.261719 239.800781 202.523438 239.800781 Z M 196.171875 189.785156 C 196.914062 189.785156 197.511719 189.1875 197.511719 188.445312 C 197.511719 187.703125 196.914062 187.105469 196.171875 187.105469 C 195.433594 187.105469 194.832031 187.703125 194.832031 188.445312 C 194.832031 189.1875 195.433594 189.785156 196.171875 189.785156 Z M 198.929688 221.84375 C 198.1875 221.84375 197.589844 222.445312 197.589844 223.1875 C 197.589844 223.925781 198.1875 224.527344 198.929688 224.527344 C 199.671875 224.527344 200.269531 223.925781 200.269531 223.1875 C 200.269531 222.445312 199.671875 221.84375 198.929688 221.84375 Z M 208.265625 227.324219 C 207.527344 227.324219 206.925781 227.921875 206.925781 228.664062 C 206.925781 229.402344 207.527344 230.003906 208.265625 230.003906 C 209.007812 230.003906 209.609375 229.402344 209.609375 228.664062 C 209.609375 227.921875 209.007812 227.324219 208.265625 227.324219 Z M 198.371094 313.816406 C 198.128906 315.011719 197.386719 316.023438 196.167969 316.023438 C 194.949219 316.023438 193.960938 315.035156 193.960938 313.816406 C 193.960938 312.597656 194.949219 311.609375 196.167969 311.609375 C 196.167969 311.609375 193.335938 311.023438 193.03125 314.035156 C 192.847656 315.835938 195.019531 316.386719 196.179688 316.386719 C 197.335938 316.386719 201.441406 316.152344 200.546875 308.839844 C 199.453125 299.898438 190.390625 284.730469 147.902344 257.335938 C 150.632812 259.109375 202.578125 293.144531 198.371094 313.816406 Z M 147.78125 304.1875 L 147.78125 307.160156 C 156.226562 307.160156 158.53125 287.199219 147.78125 257.257812 C 161.707031 304.960938 147.78125 304.1875 147.78125 304.1875 Z M 147.816406 257.28125 C 147.84375 257.296875 147.871094 257.316406 147.902344 257.335938 C 147.863281 257.3125 147.832031 257.289062 147.816406 257.28125 C 147.796875 257.265625 147.785156 257.257812 147.78125 257.257812 C 147.78125 257.257812 148.066406 257.496094 148.566406 257.925781 C 148.167969 257.570312 147.90625 257.347656 147.816406 257.28125 Z M 166.855469 285.972656 C 160.394531 292.296875 151.640625 269.570312 151.640625 269.570312 C 151.640625 269.570312 159.300781 294.722656 168.039062 288.472656 C 176.351562 282.527344 153.175781 261.898438 148.566406 257.925781 C 152.789062 261.703125 172.453125 280.492188 166.855469 285.972656 Z M 149.695312 155.644531 C 148.511719 154.78125 147.8125 154.394531 147.8125 154.394531 C 148.453125 154.804688 149.078125 155.222656 149.695312 155.644531 Z M 232.09375 206.113281 C 203.195312 208.433594 174.128906 223.898438 167.75 227.472656 C 167.570312 229.003906 167.3125 230.46875 166.984375 231.871094 C 181.988281 225.234375 191.996094 225.234375 191.996094 225.234375 C 182.066406 227.1875 170.238281 232.738281 166.191406 234.816406 C 165.332031 237.519531 164.222656 239.949219 162.980469 242.128906 C 189.90625 235.242188 204.535156 229.417969 204.535156 229.417969 C 192.21875 237.335938 163.695312 244.632812 160.652344 245.75 C 159.078125 247.917969 157.410156 249.757812 155.816406 251.289062 C 184.4375 250.171875 195.828125 246.25 195.828125 246.25 C 182.136719 254.316406 154.082031 254.128906 152.554688 254.113281 C 150.632812 255.613281 149.074219 256.554688 148.316406 256.984375 L 149.722656 256.335938 C 149.722656 256.335938 153.316406 255.3125 165.957031 255.53125 C 178.246094 255.746094 191.640625 252.933594 205.507812 246.480469 C 232.308594 234.007812 232.09375 206.113281 232.09375 206.113281 Z M 178.949219 204.003906 C 182.121094 199.023438 186.625 195.835938 186.625 195.835938 C 183.144531 199.320312 180.765625 203.960938 179.445312 207.050781 C 180.105469 211.640625 180.265625 215.191406 180.296875 217.042969 C 184.679688 207.632812 193.492188 193.917969 193.492188 193.917969 C 190.304688 204.6875 186.214844 213.035156 184.269531 216.703125 C 186.046875 215.976562 187.953125 215.242188 189.988281 214.503906 C 194.40625 207.414062 195.5 200.113281 195.5 200.113281 C 195.65625 206.378906 194.144531 211.011719 193.117188 213.410156 C 195.519531 212.597656 198.074219 211.796875 200.785156 211.023438 L 200.5 211.101562 C 209.1875 192.796875 201.972656 174.589844 201.972656 174.589844 C 188.773438 178.960938 179.511719 191.058594 176.839844 194.894531 C 177.769531 198.132812 178.453125 201.207031 178.949219 204.003906 Z M 147.777344 257.230469 C 147.773438 257.230469 147.769531 257.226562 147.765625 257.222656 C 147.761719 257.226562 147.757812 257.230469 147.753906 257.230469 L 147.765625 257.234375 Z M 147.21875 256.984375 C 146.457031 256.554688 144.898438 255.613281 142.976562 254.113281 C 141.453125 254.128906 113.398438 254.316406 99.703125 246.25 C 99.703125 246.25 111.097656 250.171875 139.714844 251.289062 C 138.121094 249.757812 136.453125 247.917969 134.878906 245.75 C 131.835938 244.632812 103.3125 237.335938 90.996094 229.417969 C 90.996094 229.417969 105.625 235.242188 132.550781 242.128906 C 131.308594 239.949219 130.199219 237.519531 129.34375 234.816406 C 125.292969 232.738281 113.46875 227.1875 103.535156 225.234375 C 103.535156 225.234375 113.542969 225.234375 128.546875 231.871094 C 128.222656 230.46875 127.960938 229.003906 127.785156 227.472656 C 121.402344 223.898438 92.339844 208.433594 63.441406 206.113281 C 63.441406 206.113281 63.222656 234.007812 90.023438 246.480469 C 103.890625 252.933594 117.289062 255.746094 129.574219 255.53125 C 142.214844 255.3125 145.808594 256.335938 145.808594 256.335938 Z M 95.03125 211.101562 L 94.75 211.023438 C 97.457031 211.796875 100.011719 212.597656 102.414062 213.410156 C 101.390625 211.011719 99.875 206.378906 100.035156 200.113281 C 100.035156 200.113281 101.125 207.414062 105.542969 214.503906 C 107.578125 215.242188 109.484375 215.976562 111.261719 216.703125 C 109.320312 213.035156 105.226562 204.6875 102.042969 193.917969 C 102.042969 193.917969 110.851562 207.632812 115.234375 217.042969 C 115.265625 215.191406 115.425781 211.640625 116.089844 207.050781 C 114.765625 203.960938 112.386719 199.320312 108.90625 195.835938 C 108.90625 195.835938 113.410156 199.023438 116.582031 204.003906 C 117.078125 201.207031 117.765625 198.132812 118.695312 194.894531 C 116.019531 191.058594 106.757812 178.960938 93.5625 174.589844 C 93.5625 174.589844 86.34375 192.796875 95.03125 211.101562 Z M 190.777344 272.613281 C 163.902344 269.542969 163.136719 261.09375 147.78125 257.257812 C 160.089844 258.558594 165.796875 267.273438 191.277344 270.191406 C 214.535156 272.851562 229.074219 264.070312 229.074219 264.070312 C 224.46875 254.402344 212.144531 250.503906 207.59375 249.363281 C 198.617188 254.199219 188.839844 256 179.605469 256.613281 C 182.800781 257.710938 188.546875 259.476562 194.113281 260.140625 C 194.113281 260.140625 181.199219 259.289062 174.21875 256.851562 C 170.363281 256.945312 166.652344 256.886719 163.203125 256.820312 C 164.777344 257.488281 167.71875 258.78125 169.820312 259.980469 C 172.820312 261.6875 181.265625 264.78125 186.605469 264.941406 C 187.167969 264.960938 175.148438 264.863281 168.039062 260.820312 C 163.695312 258.351562 160.609375 257.238281 158.863281 256.746094 C 154.542969 256.6875 150.773438 256.734375 147.824219 257.25 C 147.824219 257.25 147.8125 257.257812 147.8125 257.257812 C 147.8125 257.257812 147.820312 257.25 147.824219 257.25 C 147.816406 257.25 147.8125 257.25 147.804688 257.253906 C 147.808594 257.253906 147.808594 257.257812 147.8125 257.257812 C 147.8125 257.257812 147.808594 257.253906 147.804688 257.253906 L 147.8125 257.257812 L 147.722656 257.257812 L 147.730469 257.253906 C 147.726562 257.253906 147.726562 257.253906 147.726562 257.253906 C 147.722656 257.253906 147.722656 257.257812 147.722656 257.257812 C 147.722656 257.257812 147.722656 257.253906 147.726562 257.253906 C 147.71875 257.25 147.714844 257.25 147.707031 257.25 C 147.710938 257.25 147.722656 257.257812 147.722656 257.257812 C 147.722656 257.257812 147.710938 257.25 147.707031 257.25 C 144.757812 256.734375 140.988281 256.6875 136.667969 256.746094 C 134.921875 257.238281 131.835938 258.351562 127.496094 260.820312 C 120.386719 264.863281 108.363281 264.960938 108.925781 264.941406 C 114.265625 264.78125 122.710938 261.6875 125.710938 259.980469 C 127.8125 258.78125 130.753906 257.488281 132.328125 256.820312 C 128.878906 256.886719 125.171875 256.945312 121.3125 256.851562 C 114.332031 259.289062 101.421875 260.140625 101.421875 260.140625 C 106.984375 259.476562 112.730469 257.710938 115.925781 256.613281 C 106.695312 256 96.914062 254.199219 87.941406 249.363281 C 83.386719 250.503906 71.0625 254.402344 66.460938 264.070312 C 66.460938 264.070312 81 272.851562 104.253906 270.191406 C 129.738281 267.273438 135.441406 258.558594 147.75 257.257812 C 132.394531 261.09375 131.628906 269.542969 104.753906 272.613281 C 80.238281 275.414062 65.601562 264.167969 65.601562 264.167969 C 70.207031 251.882812 85.5625 248.042969 86.636719 248.640625 C 85.496094 247.980469 84.367188 247.273438 83.257812 246.507812 C 60.992188 231.152344 62.527344 205.050781 62.527344 205.050781 C 73.636719 206.078125 83.515625 208.007812 92.03125 210.277344 L 91.398438 210.101562 C 91.398438 210.101562 84.027344 193.53125 93.238281 173.570312 C 93.238281 173.570312 109.898438 179.152344 119.628906 191.84375 C 123.636719 179.609375 131.285156 165.632812 145.835938 155.644531 C 139.808594 160.054688 121.175781 177 118.183594 219.746094 C 122.996094 222.019531 126.167969 223.886719 127.550781 224.742188 C 127.515625 224.027344 127.496094 223.296875 127.496094 222.554688 C 127.496094 197.382812 140.8125 187.203125 147.722656 183.363281 C 147.722656 183.363281 129.925781 193.902344 129.925781 223.039062 C 129.925781 245.71875 144.90625 255.582031 147.371094 257.054688 L 147.753906 257.230469 C 147.757812 257.226562 147.761719 257.226562 147.765625 257.222656 C 147.726562 257.191406 147.660156 257.140625 147.566406 257.070312 C 147.632812 257.121094 147.699219 257.171875 147.765625 257.222656 C 147.835938 257.171875 147.898438 257.121094 147.964844 257.070312 C 147.871094 257.140625 147.808594 257.191406 147.765625 257.222656 C 147.769531 257.226562 147.773438 257.226562 147.777344 257.230469 L 148.164062 257.054688 C 150.628906 255.582031 165.605469 245.71875 165.605469 223.039062 C 165.605469 193.902344 147.8125 183.363281 147.8125 183.363281 C 154.722656 187.203125 168.039062 197.382812 168.039062 222.554688 C 168.039062 223.296875 168.019531 224.027344 167.980469 224.742188 C 169.363281 223.886719 172.535156 222.019531 177.347656 219.746094 C 174.355469 177 155.726562 160.054688 149.695312 155.644531 C 164.25 165.632812 171.894531 179.609375 175.902344 191.84375 C 185.636719 179.152344 202.292969 173.570312 202.292969 173.570312 C 211.503906 193.53125 204.132812 210.101562 204.132812 210.101562 L 203.5 210.277344 C 212.015625 208.007812 221.894531 206.078125 233.003906 205.050781 C 233.003906 205.050781 234.539062 231.152344 212.273438 246.507812 C 211.164062 247.273438 210.035156 247.980469 208.894531 248.640625 C 209.96875 248.042969 225.328125 251.882812 229.933594 264.167969 C 229.933594 264.167969 215.292969 275.414062 190.777344 272.613281 Z M 148.707031 312.242188 C 148.707031 311.5 148.105469 310.902344 147.367188 310.902344 C 146.625 310.902344 146.023438 311.5 146.023438 312.242188 C 146.023438 312.980469 146.625 313.582031 147.367188 313.582031 C 148.105469 313.582031 148.707031 312.980469 148.707031 312.242188 Z M 197.511719 319.527344 C 196.773438 319.527344 196.171875 320.128906 196.171875 320.867188 C 196.171875 321.609375 196.773438 322.210938 197.511719 322.210938 C 198.253906 322.210938 198.855469 321.609375 198.855469 320.867188 C 198.855469 320.128906 198.253906 319.527344 197.511719 319.527344 Z M 100.023438 319.527344 C 99.28125 319.527344 98.679688 320.128906 98.679688 320.867188 C 98.679688 321.609375 99.28125 322.210938 100.023438 322.210938 C 100.761719 322.210938 101.363281 321.609375 101.363281 320.867188 C 101.363281 320.128906 100.761719 319.527344 100.023438 319.527344 Z M 100.699219 264.945312 C 99.960938 264.945312 99.359375 265.546875 99.359375 266.285156 C 99.359375 267.027344 99.960938 267.625 100.699219 267.625 C 101.441406 267.625 102.042969 267.027344 102.042969 266.285156 C 102.042969 265.546875 101.441406 264.945312 100.699219 264.945312 Z M 92.335938 258.140625 C 91.597656 258.140625 90.996094 258.738281 90.996094 259.480469 C 90.996094 260.21875 91.597656 260.820312 92.335938 260.820312 C 93.078125 260.820312 93.679688 260.21875 93.679688 259.480469 C 93.679688 258.738281 93.078125 258.140625 92.335938 258.140625 Z M 93.011719 239.800781 C 92.269531 239.800781 91.667969 240.402344 91.667969 241.144531 C 91.667969 241.882812 92.269531 242.484375 93.011719 242.484375 C 93.75 242.484375 94.351562 241.882812 94.351562 241.144531 C 94.351562 240.402344 93.75 239.800781 93.011719 239.800781 Z M 99.359375 189.785156 C 100.097656 189.785156 100.699219 189.1875 100.699219 188.445312 C 100.699219 187.703125 100.097656 187.105469 99.359375 187.105469 C 98.617188 187.105469 98.019531 187.703125 98.019531 188.445312 C 98.019531 189.1875 98.617188 189.785156 99.359375 189.785156 Z M 146.421875 198.773438 C 146.421875 199.511719 147.023438 200.113281 147.761719 200.113281 C 148.503906 200.113281 149.105469 199.511719 149.105469 198.773438 C 149.105469 198.03125 148.503906 197.429688 147.761719 197.429688 C 147.023438 197.429688 146.421875 198.03125 146.421875 198.773438 Z M 159.175781 213.222656 C 159.175781 212.480469 158.574219 211.882812 157.835938 211.882812 C 157.09375 211.882812 156.492188 212.480469 156.492188 213.222656 C 156.492188 213.964844 157.09375 214.5625 157.835938 214.5625 C 158.574219 214.5625 159.175781 213.964844 159.175781 213.222656 Z M 135.011719 213.222656 C 135.011719 213.964844 135.613281 214.5625 136.351562 214.5625 C 137.09375 214.5625 137.691406 213.964844 137.691406 213.222656 C 137.691406 212.480469 137.09375 211.882812 136.351562 211.882812 C 135.613281 211.882812 135.011719 212.480469 135.011719 213.222656 Z M 96.5 224.527344 C 97.242188 224.527344 97.839844 223.925781 97.839844 223.1875 C 97.839844 222.445312 97.242188 221.84375 96.5 221.84375 C 95.757812 221.84375 95.160156 222.445312 95.160156 223.1875 C 95.160156 223.925781 95.757812 224.527344 96.5 224.527344 Z M 87.265625 227.324219 C 86.523438 227.324219 85.925781 227.921875 85.925781 228.664062 C 85.925781 229.402344 86.523438 230.003906 87.265625 230.003906 C 88.003906 230.003906 88.605469 229.402344 88.605469 228.664062 C 88.605469 227.921875 88.003906 227.324219 87.265625 227.324219 Z M 147.367188 318.289062 C 148.949219 318.289062 150.230469 319.960938 150.230469 322.019531 C 150.230469 324.082031 148.949219 325.75 147.367188 325.75 C 149.425781 325.75 151.097656 324.082031 151.097656 322.019531 C 151.097656 319.960938 149.425781 318.289062 147.367188 318.289062 Z M 144.5 322.019531 C 144.5 319.960938 145.785156 318.289062 147.367188 318.289062 C 145.308594 318.289062 143.636719 319.960938 143.636719 322.019531 C 143.636719 324.082031 145.308594 325.75 147.367188 325.75 C 145.785156 325.75 144.5 324.082031 144.5 322.019531 Z M 150.984375 169.742188 C 150.984375 172.339844 149.363281 174.449219 147.367188 174.449219 C 149.96875 174.449219 152.078125 172.339844 152.078125 169.742188 C 152.078125 167.140625 149.96875 165.03125 147.367188 165.03125 C 149.363281 165.03125 150.984375 167.140625 150.984375 169.742188 Z M 142.660156 169.742188 C 142.660156 172.339844 144.765625 174.449219 147.367188 174.449219 C 145.371094 174.449219 143.75 172.339844 143.75 169.742188 C 143.75 167.140625 145.371094 165.03125 147.367188 165.03125 C 144.765625 165.03125 142.660156 167.140625 142.660156 169.742188 Z M 138.238281 246.671875 C 132.421875 237.628906 139.535156 231.347656 143.238281 232.09375 C 147.015625 232.855469 147.722656 237.359375 147.722656 237.359375 C 147.71875 237.242188 147.707031 237.121094 147.703125 237.003906 L 147.8125 237.359375 L 148.199219 235.996094 C 148.71875 234.605469 149.875 232.582031 152.296875 232.09375 C 155.996094 231.347656 163.113281 237.628906 157.292969 246.671875 C 153.523438 252.53125 149.050781 256.222656 147.964844 257.070312 C 160.5 247.558594 161.65625 241.199219 161.027344 237.421875 C 160.902344 236.675781 160.714844 235.972656 160.472656 235.324219 C 160.839844 232.480469 161.492188 224.855469 159.140625 218.125 C 159.140625 218.125 160.015625 225.890625 158.390625 232.207031 C 157.347656 231.308594 156.027344 230.789062 154.449219 230.78125 C 152.039062 230.773438 149.933594 232.054688 148.769531 233.976562 C 148.769531 227.148438 147.8125 210.351562 147.8125 210.351562 C 146.601562 217.859375 146.765625 233.976562 146.765625 233.976562 L 146.769531 233.988281 C 145.605469 232.058594 143.496094 230.773438 141.082031 230.78125 C 139.46875 230.789062 138.121094 231.332031 137.066406 232.269531 C 135.421875 225.941406 136.300781 218.125 136.300781 218.125 C 133.898438 225.003906 134.632812 232.828125 134.992188 235.515625 C 134.78125 236.109375 134.617188 236.746094 134.503906 237.421875 C 133.875 241.199219 135.035156 247.558594 147.566406 257.070312 C 146.484375 256.222656 142.007812 252.53125 138.238281 246.671875 Z M 147.632812 257.335938 C 147.660156 257.316406 147.6875 257.296875 147.714844 257.28125 C 147.625 257.347656 147.363281 257.570312 146.964844 257.925781 C 147.464844 257.496094 147.75 257.257812 147.75 257.257812 C 147.746094 257.257812 147.734375 257.265625 147.714844 257.28125 C 147.699219 257.289062 147.667969 257.3125 147.632812 257.335938 Z M 94.984375 308.839844 C 94.089844 316.152344 98.195312 316.386719 99.355469 316.386719 C 100.511719 316.386719 102.683594 315.835938 102.5 314.035156 C 102.195312 311.023438 99.363281 311.609375 99.363281 311.609375 C 100.585938 311.609375 101.570312 312.597656 101.570312 313.816406 C 101.570312 315.035156 100.585938 316.023438 99.363281 316.023438 C 98.144531 316.023438 97.402344 315.011719 97.160156 313.816406 C 92.953125 293.144531 144.898438 259.109375 147.632812 257.335938 C 105.140625 284.730469 96.078125 299.898438 94.984375 308.839844 Z M 147.75 307.160156 L 147.75 304.1875 C 147.75 304.1875 133.824219 304.960938 147.75 257.257812 C 137.003906 287.199219 139.304688 307.160156 147.75 307.160156 Z M 127.496094 288.472656 C 136.230469 294.722656 143.894531 269.570312 143.894531 269.570312 C 143.894531 269.570312 135.136719 292.296875 128.675781 285.972656 C 123.082031 280.492188 142.742188 261.707031 146.964844 257.925781 C 142.355469 261.902344 119.179688 282.527344 127.496094 288.472656 Z M 147.722656 154.394531 C 147.078125 154.804688 146.453125 155.222656 145.835938 155.644531 C 147.019531 154.78125 147.722656 154.394531 147.722656 154.394531 " fill-opacity="1" fill-rule="nonzero"/></g><g clip-path="url(#eceb2d558b)"><path fill="#ffffff" d="M 194.582031 111.628906 C 195.3125 111.628906 195.90625 111.039062 195.90625 110.308594 C 195.90625 109.578125 195.3125 108.984375 194.582031 108.984375 C 193.851562 108.984375 193.261719 109.578125 193.261719 110.308594 C 193.261719 111.039062 193.851562 111.628906 194.582031 111.628906 Z M 202.828125 104.921875 C 203.558594 104.921875 204.152344 104.328125 204.152344 103.597656 C 204.152344 102.867188 203.558594 102.277344 202.828125 102.277344 C 202.097656 102.277344 201.507812 102.867188 201.507812 103.597656 C 201.507812 104.328125 202.097656 104.921875 202.828125 104.921875 Z M 202.164062 84.199219 C 201.433594 84.199219 200.84375 84.792969 200.84375 85.519531 C 200.84375 86.25 201.433594 86.84375 202.164062 86.84375 C 202.894531 86.84375 203.484375 86.25 203.484375 85.519531 C 203.484375 84.792969 202.894531 84.199219 202.164062 84.199219 Z M 195.90625 34.890625 C 196.636719 34.890625 197.226562 34.300781 197.226562 33.570312 C 197.226562 32.839844 196.636719 32.246094 195.90625 32.246094 C 195.175781 32.246094 194.582031 32.839844 194.582031 33.570312 C 194.582031 34.300781 195.175781 34.890625 195.90625 34.890625 Z M 198.625 66.496094 C 197.894531 66.496094 197.300781 67.089844 197.300781 67.820312 C 197.300781 68.550781 197.894531 69.140625 198.625 69.140625 C 199.355469 69.140625 199.945312 68.550781 199.945312 67.820312 C 199.945312 67.089844 199.355469 66.496094 198.625 66.496094 Z M 207.828125 71.894531 C 207.097656 71.894531 206.507812 72.488281 206.507812 73.21875 C 206.507812 73.949219 207.097656 74.539062 207.828125 74.539062 C 208.558594 74.539062 209.152344 73.949219 209.152344 73.21875 C 209.152344 72.488281 208.558594 71.894531 207.828125 71.894531 Z M 198.074219 157.167969 C 197.835938 158.34375 197.101562 159.339844 195.898438 159.339844 C 194.699219 159.339844 193.726562 158.367188 193.726562 157.167969 C 193.726562 155.964844 194.699219 154.992188 195.898438 154.992188 C 195.898438 154.992188 193.109375 154.414062 192.808594 157.378906 C 192.628906 159.15625 194.769531 159.699219 195.910156 159.699219 C 197.054688 159.699219 201.101562 159.46875 200.21875 152.257812 C 199.140625 143.445312 190.207031 128.492188 148.316406 101.484375 C 151.011719 103.234375 202.222656 136.789062 198.074219 157.167969 Z M 148.199219 147.675781 L 148.199219 150.605469 C 156.523438 150.605469 158.796875 130.925781 148.199219 101.40625 C 161.925781 148.433594 148.199219 147.675781 148.199219 147.675781 Z M 148.234375 101.429688 C 148.261719 101.449219 148.289062 101.464844 148.316406 101.484375 C 148.28125 101.460938 148.25 101.441406 148.230469 101.429688 C 148.214844 101.417969 148.203125 101.410156 148.199219 101.40625 C 148.199219 101.40625 148.480469 101.640625 148.972656 102.066406 C 148.582031 101.71875 148.324219 101.496094 148.234375 101.429688 Z M 167.003906 129.714844 C 160.636719 135.949219 152.003906 113.546875 152.003906 113.546875 C 152.003906 113.546875 159.558594 138.34375 168.167969 132.183594 C 176.363281 126.320312 153.515625 105.984375 148.972656 102.066406 C 153.132812 105.792969 172.519531 124.3125 167.003906 129.714844 Z M 150.085938 1.234375 C 148.921875 0.378906 148.226562 0 148.226562 0 C 148.859375 0.402344 149.476562 0.816406 150.085938 1.234375 Z M 231.316406 50.988281 C 202.828125 53.273438 174.175781 68.519531 167.882812 72.042969 C 167.707031 73.554688 167.453125 75 167.132812 76.382812 C 181.921875 69.839844 191.789062 69.835938 191.789062 69.835938 C 181.996094 71.761719 170.339844 77.238281 166.347656 79.285156 C 165.5 81.949219 164.410156 84.34375 163.183594 86.492188 C 189.730469 79.707031 204.152344 73.960938 204.152344 73.960938 C 192.007812 81.769531 163.890625 88.960938 160.890625 90.0625 C 159.335938 92.199219 157.691406 94.015625 156.121094 95.523438 C 184.335938 94.421875 195.566406 90.554688 195.566406 90.554688 C 182.066406 98.507812 154.410156 98.324219 152.90625 98.308594 C 151.011719 99.785156 149.472656 100.714844 148.726562 101.136719 L 150.113281 100.5 C 150.113281 100.5 153.65625 99.492188 166.121094 99.707031 C 178.230469 99.917969 191.4375 97.144531 205.109375 90.785156 C 231.53125 78.488281 231.316406 50.988281 231.316406 50.988281 Z M 178.925781 48.90625 C 182.054688 44 186.492188 40.855469 186.492188 40.855469 C 183.0625 44.289062 180.71875 48.867188 179.414062 51.910156 C 180.066406 56.433594 180.222656 59.9375 180.253906 61.761719 C 184.574219 52.484375 193.261719 38.960938 193.261719 38.960938 C 190.121094 49.578125 186.085938 57.8125 184.171875 61.425781 C 185.921875 60.710938 187.804688 59.984375 189.808594 59.257812 C 194.164062 52.269531 195.242188 45.070312 195.242188 45.070312 C 195.398438 51.25 193.90625 55.816406 192.890625 58.183594 C 195.261719 57.382812 197.78125 56.589844 200.453125 55.828125 L 200.171875 55.90625 C 208.734375 37.859375 201.621094 19.910156 201.621094 19.910156 C 188.609375 24.21875 179.480469 36.144531 176.84375 39.925781 C 177.761719 43.121094 178.433594 46.152344 178.925781 48.90625 Z M 148.195312 101.382812 C 148.191406 101.378906 148.1875 101.378906 148.183594 101.375 C 148.179688 101.378906 148.175781 101.378906 148.171875 101.382812 L 148.183594 101.386719 Z M 147.644531 101.136719 C 146.894531 100.714844 145.359375 99.785156 143.460938 98.308594 C 141.960938 98.324219 114.300781 98.507812 100.800781 90.554688 C 100.800781 90.554688 112.035156 94.421875 140.246094 95.523438 C 138.675781 94.015625 137.03125 92.199219 135.480469 90.0625 C 132.480469 88.960938 104.359375 81.769531 92.21875 73.960938 C 92.21875 73.960938 106.636719 79.707031 133.1875 86.492188 C 131.960938 84.34375 130.867188 81.949219 130.019531 79.285156 C 126.03125 77.238281 114.371094 71.761719 104.578125 69.835938 C 104.578125 69.835938 114.445312 69.839844 129.238281 76.382812 C 128.917969 75 128.660156 73.554688 128.484375 72.042969 C 122.191406 68.519531 93.539062 53.273438 65.050781 50.988281 C 65.050781 50.988281 64.835938 78.488281 91.257812 90.785156 C 104.929688 97.144531 118.136719 99.917969 130.246094 99.707031 C 142.710938 99.492188 146.253906 100.5 146.253906 100.5 Z M 96.195312 55.90625 L 95.917969 55.828125 C 98.585938 56.589844 101.105469 57.382812 103.476562 58.183594 C 102.460938 55.816406 100.96875 51.25 101.128906 45.070312 C 101.128906 45.070312 102.203125 52.269531 106.558594 59.257812 C 108.5625 59.984375 110.445312 60.710938 112.195312 61.425781 C 110.28125 57.8125 106.246094 49.578125 103.105469 38.960938 C 103.105469 38.960938 111.792969 52.484375 116.113281 61.761719 C 116.144531 59.9375 116.300781 56.433594 116.953125 51.910156 C 115.648438 48.867188 113.304688 44.289062 109.875 40.855469 C 109.875 40.855469 114.3125 44 117.4375 48.90625 C 117.933594 46.152344 118.605469 43.121094 119.523438 39.925781 C 116.886719 36.144531 107.757812 24.21875 94.746094 19.910156 C 94.746094 19.910156 87.632812 37.859375 96.195312 55.90625 Z M 190.585938 116.546875 C 164.09375 113.519531 163.335938 105.191406 148.199219 101.40625 C 160.332031 102.691406 165.957031 111.28125 191.082031 114.15625 C 214.007812 116.78125 228.339844 108.121094 228.339844 108.121094 C 223.800781 98.589844 211.652344 94.75 207.164062 93.625 C 198.316406 98.394531 188.675781 100.167969 179.574219 100.773438 C 182.722656 101.855469 188.386719 103.597656 193.875 104.25 C 193.875 104.25 181.144531 103.410156 174.261719 101.007812 C 170.460938 101.101562 166.804688 101.042969 163.402344 100.976562 C 164.957031 101.632812 167.855469 102.910156 169.929688 104.089844 C 172.882812 105.773438 181.210938 108.824219 186.472656 108.984375 C 187.03125 109 175.179688 108.90625 168.167969 104.921875 C 163.886719 102.484375 160.847656 101.390625 159.125 100.902344 C 154.867188 100.84375 151.148438 100.894531 148.242188 101.398438 C 148.242188 101.402344 148.226562 101.40625 148.226562 101.40625 C 148.226562 101.40625 148.238281 101.402344 148.242188 101.398438 C 148.234375 101.402344 148.226562 101.402344 148.222656 101.402344 C 148.222656 101.40625 148.226562 101.40625 148.226562 101.40625 C 148.226562 101.40625 148.222656 101.40625 148.222656 101.402344 C 148.222656 101.402344 148.222656 101.402344 148.21875 101.402344 L 148.226562 101.40625 L 148.140625 101.40625 L 148.148438 101.402344 C 148.148438 101.402344 148.144531 101.402344 148.144531 101.402344 C 148.144531 101.40625 148.140625 101.40625 148.140625 101.40625 C 148.140625 101.40625 148.144531 101.40625 148.144531 101.402344 C 148.136719 101.402344 148.132812 101.402344 148.125 101.398438 C 148.128906 101.402344 148.140625 101.40625 148.140625 101.40625 C 148.140625 101.40625 148.128906 101.402344 148.125 101.398438 C 145.21875 100.894531 141.503906 100.84375 137.242188 100.902344 C 135.519531 101.390625 132.480469 102.484375 128.199219 104.921875 C 121.191406 108.90625 109.335938 109 109.894531 108.984375 C 115.160156 108.824219 123.484375 105.773438 126.441406 104.089844 C 128.511719 102.910156 131.414062 101.632812 132.964844 100.976562 C 129.5625 101.042969 125.910156 101.101562 122.105469 101.007812 C 115.222656 103.410156 102.496094 104.25 102.496094 104.25 C 107.980469 103.597656 113.644531 101.855469 116.796875 100.773438 C 107.691406 100.167969 98.050781 98.394531 89.203125 93.625 C 84.714844 94.75 72.566406 98.589844 68.027344 108.121094 C 68.027344 108.121094 82.359375 116.78125 105.289062 114.15625 C 130.410156 111.28125 136.035156 102.691406 148.167969 101.40625 C 133.03125 105.191406 132.273438 113.519531 105.78125 116.546875 C 81.613281 119.308594 67.179688 108.21875 67.179688 108.21875 C 71.722656 96.109375 86.859375 92.324219 87.921875 92.910156 C 86.792969 92.261719 85.683594 91.566406 84.589844 90.808594 C 62.636719 75.671875 64.152344 49.9375 64.152344 49.9375 C 75.105469 50.953125 84.84375 52.851562 93.238281 55.089844 L 92.613281 54.917969 C 92.613281 54.917969 85.34375 38.582031 94.429688 18.902344 C 94.429688 18.902344 110.851562 24.40625 120.445312 36.917969 C 124.398438 24.855469 131.933594 11.078125 146.28125 1.234375 C 140.335938 5.578125 121.96875 22.285156 119.023438 64.425781 C 123.765625 66.667969 126.890625 68.507812 128.253906 69.355469 C 128.21875 68.648438 128.199219 67.929688 128.199219 67.195312 C 128.199219 42.378906 141.328125 32.34375 148.140625 28.558594 C 148.140625 28.558594 130.597656 38.949219 130.597656 67.671875 C 130.597656 90.03125 145.363281 99.757812 147.792969 101.207031 L 148.171875 101.382812 C 148.175781 101.378906 148.179688 101.375 148.183594 101.375 C 148.144531 101.34375 148.078125 101.292969 147.988281 101.222656 C 148.054688 101.273438 148.117188 101.320312 148.183594 101.375 C 148.253906 101.320312 148.3125 101.273438 148.382812 101.222656 C 148.289062 101.292969 148.222656 101.34375 148.183594 101.375 C 148.1875 101.375 148.191406 101.378906 148.195312 101.382812 L 148.574219 101.207031 C 151.003906 99.757812 165.769531 90.03125 165.769531 67.671875 C 165.769531 38.949219 148.226562 28.558594 148.226562 28.558594 C 155.042969 32.34375 168.167969 42.378906 168.167969 67.195312 C 168.167969 67.929688 168.148438 68.648438 168.113281 69.355469 C 169.476562 68.507812 172.605469 66.667969 177.34375 64.425781 C 174.398438 22.285156 156.03125 5.578125 150.085938 1.234375 C 164.433594 11.078125 171.972656 24.855469 175.921875 36.917969 C 185.515625 24.40625 201.9375 18.902344 201.9375 18.902344 C 211.023438 38.582031 203.753906 54.917969 203.753906 54.917969 L 203.128906 55.089844 C 211.523438 52.851562 221.261719 50.953125 232.214844 49.9375 C 232.214844 49.9375 233.730469 75.671875 211.78125 90.808594 C 210.683594 91.566406 209.574219 92.261719 208.449219 92.910156 C 209.507812 92.324219 224.648438 96.109375 229.1875 108.21875 C 229.1875 108.21875 214.753906 119.308594 190.585938 116.546875 Z M 149.113281 155.613281 C 149.113281 154.882812 148.519531 154.292969 147.789062 154.292969 C 147.058594 154.292969 146.46875 154.882812 146.46875 155.613281 C 146.46875 156.34375 147.058594 156.9375 147.789062 156.9375 C 148.519531 156.9375 149.113281 156.34375 149.113281 155.613281 Z M 197.226562 162.796875 C 196.496094 162.796875 195.90625 163.390625 195.90625 164.121094 C 195.90625 164.847656 196.496094 165.441406 197.226562 165.441406 C 197.957031 165.441406 198.550781 164.847656 198.550781 164.121094 C 198.550781 163.390625 197.957031 162.796875 197.226562 162.796875 Z M 101.113281 162.796875 C 100.386719 162.796875 99.792969 163.390625 99.792969 164.121094 C 99.792969 164.847656 100.386719 165.441406 101.113281 165.441406 C 101.84375 165.441406 102.4375 164.847656 102.4375 164.121094 C 102.4375 163.390625 101.84375 162.796875 101.113281 162.796875 Z M 101.785156 108.984375 C 101.054688 108.984375 100.460938 109.578125 100.460938 110.308594 C 100.460938 111.039062 101.054688 111.628906 101.785156 111.628906 C 102.515625 111.628906 103.105469 111.039062 103.105469 110.308594 C 103.105469 109.578125 102.515625 108.984375 101.785156 108.984375 Z M 93.539062 102.277344 C 92.808594 102.277344 92.21875 102.867188 92.21875 103.597656 C 92.21875 104.328125 92.808594 104.921875 93.539062 104.921875 C 94.269531 104.921875 94.859375 104.328125 94.859375 103.597656 C 94.859375 102.867188 94.269531 102.277344 93.539062 102.277344 Z M 94.203125 84.199219 C 93.472656 84.199219 92.882812 84.792969 92.882812 85.519531 C 92.882812 86.25 93.472656 86.84375 94.203125 86.84375 C 94.933594 86.84375 95.527344 86.25 95.527344 85.519531 C 95.527344 84.792969 94.933594 84.199219 94.203125 84.199219 Z M 100.460938 34.890625 C 101.191406 34.890625 101.785156 34.300781 101.785156 33.570312 C 101.785156 32.839844 101.191406 32.246094 100.460938 32.246094 C 99.730469 32.246094 99.140625 32.839844 99.140625 33.570312 C 99.140625 34.300781 99.730469 34.890625 100.460938 34.890625 Z M 146.859375 43.75 C 146.859375 44.480469 147.449219 45.070312 148.179688 45.070312 C 148.910156 45.070312 149.503906 44.480469 149.503906 43.75 C 149.503906 43.019531 148.910156 42.429688 148.179688 42.429688 C 147.449219 42.429688 146.859375 43.019531 146.859375 43.75 Z M 159.433594 57.996094 C 159.433594 57.265625 158.839844 56.671875 158.109375 56.671875 C 157.378906 56.671875 156.789062 57.265625 156.789062 57.996094 C 156.789062 58.726562 157.378906 59.316406 158.109375 59.316406 C 158.839844 59.316406 159.433594 58.726562 159.433594 57.996094 Z M 135.609375 57.996094 C 135.609375 58.726562 136.203125 59.316406 136.929688 59.316406 C 137.660156 59.316406 138.253906 58.726562 138.253906 57.996094 C 138.253906 57.265625 137.660156 56.671875 136.929688 56.671875 C 136.203125 56.671875 135.609375 57.265625 135.609375 57.996094 Z M 97.644531 69.140625 C 98.375 69.140625 98.964844 68.550781 98.964844 67.820312 C 98.964844 67.089844 98.375 66.496094 97.644531 66.496094 C 96.914062 66.496094 96.320312 67.089844 96.320312 67.820312 C 96.320312 68.550781 96.914062 69.140625 97.644531 69.140625 Z M 88.539062 71.894531 C 87.808594 71.894531 87.214844 72.488281 87.214844 73.21875 C 87.214844 73.949219 87.808594 74.539062 88.539062 74.539062 C 89.269531 74.539062 89.863281 73.949219 89.863281 73.21875 C 89.863281 72.488281 89.269531 71.894531 88.539062 71.894531 Z M 147.789062 161.578125 C 149.351562 161.578125 150.613281 163.222656 150.613281 165.253906 C 150.613281 167.285156 149.351562 168.929688 147.789062 168.929688 C 149.820312 168.929688 151.46875 167.285156 151.46875 165.253906 C 151.46875 163.222656 149.820312 161.578125 147.789062 161.578125 Z M 144.964844 165.253906 C 144.964844 163.222656 146.230469 161.578125 147.789062 161.578125 C 145.761719 161.578125 144.113281 163.222656 144.113281 165.253906 C 144.113281 167.285156 145.761719 168.929688 147.789062 168.929688 C 146.230469 168.929688 144.964844 167.285156 144.964844 165.253906 Z M 151.355469 15.128906 C 151.355469 17.691406 149.757812 19.773438 147.789062 19.773438 C 150.355469 19.773438 152.433594 17.691406 152.433594 15.128906 C 152.433594 12.566406 150.355469 10.488281 147.789062 10.488281 C 149.757812 10.488281 151.355469 12.566406 151.355469 15.128906 Z M 143.148438 15.128906 C 143.148438 17.691406 145.226562 19.773438 147.789062 19.773438 C 145.820312 19.773438 144.226562 17.691406 144.226562 15.128906 C 144.226562 12.566406 145.820312 10.488281 147.789062 10.488281 C 145.226562 10.488281 143.148438 12.566406 143.148438 15.128906 Z M 138.789062 90.972656 C 133.054688 82.054688 140.066406 75.863281 143.71875 76.601562 C 147.445312 77.351562 148.140625 81.792969 148.140625 81.792969 C 148.136719 81.675781 148.125 81.558594 148.121094 81.441406 L 148.226562 81.792969 L 148.609375 80.445312 C 149.125 79.074219 150.261719 77.082031 152.648438 76.601562 C 156.296875 75.863281 163.3125 82.054688 157.578125 90.972656 C 153.859375 96.746094 149.449219 100.386719 148.382812 101.222656 C 160.734375 91.847656 161.878906 85.574219 161.257812 81.851562 C 161.132812 81.117188 160.949219 80.425781 160.710938 79.785156 C 161.074219 76.980469 161.714844 69.460938 159.398438 62.828125 C 159.398438 62.828125 160.261719 70.484375 158.660156 76.710938 C 157.628906 75.828125 156.328125 75.3125 154.773438 75.308594 C 152.394531 75.296875 150.320312 76.5625 149.171875 78.457031 C 149.171875 71.726562 148.226562 55.164062 148.226562 55.164062 C 147.035156 62.566406 147.199219 78.457031 147.199219 78.457031 L 147.199219 78.464844 C 146.054688 76.566406 143.976562 75.296875 141.59375 75.308594 C 140.003906 75.316406 138.675781 75.851562 137.636719 76.773438 C 136.011719 70.535156 136.882812 62.828125 136.882812 62.828125 C 134.511719 69.609375 135.238281 77.324219 135.589844 79.972656 C 135.382812 80.558594 135.222656 81.1875 135.109375 81.851562 C 134.488281 85.574219 135.632812 91.847656 147.988281 101.222656 C 146.917969 100.386719 142.503906 96.746094 138.789062 90.972656 Z M 148.050781 101.484375 C 148.078125 101.464844 148.105469 101.449219 148.132812 101.429688 C 148.042969 101.496094 147.785156 101.71875 147.394531 102.066406 C 147.886719 101.640625 148.167969 101.40625 148.167969 101.40625 C 148.164062 101.410156 148.152344 101.417969 148.132812 101.429688 C 148.117188 101.441406 148.085938 101.460938 148.050781 101.484375 Z M 96.148438 152.257812 C 95.269531 159.46875 99.3125 159.699219 100.457031 159.699219 C 101.597656 159.699219 103.738281 159.15625 103.558594 157.378906 C 103.257812 154.414062 100.46875 154.992188 100.46875 154.992188 C 101.667969 154.992188 102.640625 155.964844 102.640625 157.167969 C 102.640625 158.367188 101.667969 159.339844 100.46875 159.339844 C 99.265625 159.339844 98.53125 158.34375 98.292969 157.167969 C 94.144531 136.789062 145.355469 103.234375 148.050781 101.484375 C 106.164062 128.492188 97.226562 143.445312 96.148438 152.257812 Z M 148.167969 150.605469 L 148.167969 147.675781 C 148.167969 147.675781 134.441406 148.433594 148.167969 101.40625 C 137.574219 130.925781 139.84375 150.605469 148.167969 150.605469 Z M 128.199219 132.183594 C 136.808594 138.34375 144.367188 113.546875 144.367188 113.546875 C 144.367188 113.546875 135.734375 135.949219 129.363281 129.714844 C 123.847656 124.3125 143.234375 105.792969 147.394531 102.066406 C 142.851562 105.984375 120.003906 126.320312 128.199219 132.183594 Z M 148.140625 0 C 147.507812 0.402344 146.890625 0.816406 146.28125 1.234375 C 147.449219 0.378906 148.140625 0 148.140625 0 " fill-opacity="1" fill-rule="nonzero"/></g><g fill="#ffffff" fill-opacity="1"><g transform="translate(40.100965, 117.594743)"><g><path d="M 6.4375 -81.578125 C 6.4375 -86.585938 7.921875 -91.203125 10.890625 -95.421875 C 13.859375 -99.648438 18.207031 -103.050781 23.9375 -105.625 C 29.664062 -108.195312 36.644531 -109.484375 44.875 -109.484375 C 51.457031 -109.484375 57.160156 -109.019531 61.984375 -108.09375 C 66.816406 -107.164062 71.3125 -105.984375 75.46875 -104.546875 L 75.46875 -90.171875 L 74.390625 -90.171875 C 74.390625 -90.171875 74.101562 -90.773438 73.53125 -91.984375 C 72.957031 -93.203125 71.988281 -94.707031 70.625 -96.5 C 69.269531 -98.289062 67.460938 -100.078125 65.203125 -101.859375 C 62.953125 -103.648438 60.144531 -105.15625 56.78125 -106.375 C 53.414062 -107.59375 49.445312 -108.203125 44.875 -108.203125 C 38.21875 -108.203125 32.582031 -107.019531 27.96875 -104.65625 C 23.351562 -102.300781 19.863281 -99.296875 17.5 -95.640625 C 15.132812 -91.992188 13.953125 -88.164062 13.953125 -84.15625 C 13.953125 -80.507812 14.898438 -77.394531 16.796875 -74.8125 C 18.691406 -72.238281 21.265625 -70.019531 24.515625 -68.15625 C 27.773438 -66.300781 31.410156 -64.65625 35.421875 -63.21875 C 39.429688 -61.789062 43.582031 -60.359375 47.875 -58.921875 C 52.164062 -57.492188 56.316406 -55.9375 60.328125 -54.25 C 64.335938 -52.570312 67.96875 -50.550781 71.21875 -48.1875 C 74.476562 -45.832031 77.054688 -42.988281 78.953125 -39.65625 C 80.847656 -36.332031 81.796875 -32.3125 81.796875 -27.59375 C 81.796875 -23.863281 80.863281 -20.226562 79 -16.6875 C 77.144531 -13.144531 74.460938 -9.957031 70.953125 -7.125 C 67.441406 -4.300781 63.21875 -2.050781 58.28125 -0.375 C 53.34375 1.300781 47.765625 2.140625 41.546875 2.140625 C 36.816406 2.140625 32.304688 1.457031 28.015625 0.09375 C 23.722656 -1.257812 19.785156 -2.953125 16.203125 -4.984375 C 12.628906 -7.023438 9.519531 -9.015625 6.875 -10.953125 L 6.875 -25.328125 L 7.9375 -25.328125 C 7.9375 -25.328125 8.488281 -24.46875 9.59375 -22.75 C 10.707031 -21.039062 12.351562 -18.914062 14.53125 -16.375 C 16.71875 -13.832031 19.40625 -11.289062 22.59375 -8.75 C 25.78125 -6.207031 29.46875 -4.078125 33.65625 -2.359375 C 37.84375 -0.640625 42.472656 0.21875 47.546875 0.21875 C 51.484375 0.21875 55.148438 -0.425781 58.546875 -1.71875 C 61.953125 -3.007812 64.925781 -4.765625 67.46875 -6.984375 C 70.007812 -9.203125 71.992188 -11.703125 73.421875 -14.484375 C 74.847656 -17.273438 75.5625 -20.175781 75.5625 -23.1875 C 75.5625 -27.195312 74.59375 -30.648438 72.65625 -33.546875 C 70.726562 -36.441406 68.117188 -38.925781 64.828125 -41 C 61.535156 -43.082031 57.832031 -44.945312 53.71875 -46.59375 C 49.601562 -48.238281 45.363281 -49.8125 41 -51.3125 C 36.632812 -52.8125 32.394531 -54.421875 28.28125 -56.140625 C 24.164062 -57.859375 20.460938 -59.84375 17.171875 -62.09375 C 13.878906 -64.351562 11.265625 -67.070312 9.328125 -70.25 C 7.398438 -73.4375 6.4375 -77.210938 6.4375 -81.578125 Z M 6.4375 -81.578125 "/></g></g></g><g fill="#ffffff" fill-opacity="1"><g transform="translate(156.171492, 327.233544)"><g><path d="M 60.5625 -2.28125 L 63.515625 -2.28125 L 63.515625 0 L 13.65625 0 L 13.65625 -2.28125 L 16.625 -2.28125 C 20.570312 -2.28125 23.945312 -3.679688 26.75 -6.484375 C 29.5625 -9.296875 31.039062 -12.675781 31.1875 -16.625 L 31.1875 -142.984375 C 31.039062 -146.921875 29.5625 -150.253906 26.75 -152.984375 C 23.945312 -155.722656 20.570312 -157.09375 16.625 -157.09375 L 13.65625 -157.09375 L 13.65625 -159.375 L 63.515625 -159.375 L 63.515625 -157.09375 L 60.5625 -157.09375 C 56.613281 -157.09375 53.234375 -155.722656 50.421875 -152.984375 C 47.617188 -150.253906 46.140625 -146.921875 45.984375 -142.984375 L 45.984375 -16.625 C 45.984375 -12.675781 47.425781 -9.296875 50.3125 -6.484375 C 53.195312 -3.679688 56.613281 -2.28125 60.5625 -2.28125 Z M 218.34375 34.15625 L 218.34375 36.421875 C 212.570312 37.785156 206.800781 38.46875 201.03125 38.46875 C 176.144531 38.46875 152.015625 26.023438 128.640625 1.140625 L 53.28125 -79.234375 L 107 -146.625 C 108.21875 -148.132812 108.828125 -149.5 108.828125 -150.71875 C 108.828125 -151.9375 108.597656 -153 108.140625 -153.90625 C 106.929688 -156.1875 104.734375 -157.328125 101.546875 -157.328125 L 99.265625 -157.328125 L 99.265625 -159.375 L 147.296875 -159.375 L 147.296875 -157.328125 L 146.390625 -157.328125 C 136.367188 -157.328125 128.171875 -153.757812 121.796875 -146.625 L 68.75 -85.375 L 146.171875 -2.734375 C 156.179688 8.046875 167.445312 16.890625 179.96875 23.796875 C 192.488281 30.703125 205.28125 34.15625 218.34375 34.15625 Z M 218.34375 34.15625 "/></g></g></g></svg>